<svg xmlns="http://www.w3.org/2000/svg" width="485.61" height="290.2" viewBox="0 0 485.61 290.2"><g transform="translate(-0.706 -0.644)"><path d="M420.417,144.738c-8.7-7.7-19.5-14-31.8-20.7-58.4-31.9-110.8-155.2-192.9-115.5-36.7,17.8-55,58-83.1,85.5-33.2,32.6-110.6,65.2-111.9,119.2-.7,28.3,33.3,75.8,64.2,75.8l312.6.2c13.2-5.8,26.6-11.7,37.3-21.3,20.2-18.1,29.4-48.5,27.8-75.4C441.317,170.138,433.217,156.038,420.417,144.738Z" fill="#a9d7ff"/><path d="M421.317,223.538s-50.1-27.3-39.4-74.4c0,0,6.7,15.7,20.3,22.7C402.217,171.838,430.417,196.138,421.317,223.538Z" fill="#2b8dd8"/><path d="M486.316,223.138s-1.7,32.9-46.3,26.6c0,0-3.9-11.4,17.2-17.8a25.473,25.473,0,0,1,10.3-.8C472.017,231.538,479.516,230.838,486.316,223.138Z" fill="#2b8dd8"/><path d="M467.617,156.438s-58.9,33.7-36.9,82.3c0,0,11.4-2.4,22.1-17.6,7.1-10.1,10.4-22.2,10.4-34.5C463.117,179.538,464.017,169.338,467.617,156.438Z" fill="#2b8dd8"/><path d="M400.317,212.138s-15.6-13.7-35.8,7.1c0,0,27.4-4.3,24.6,9.9,0,0,1.1,19.1,15.3,26C404.417,255.138,421.917,224.938,400.317,212.138Z" fill="#2b8dd8"/><path d="M400.717,290.438h-.2a.924.924,0,0,1-.578-.4.923.923,0,0,1-.122-.695c2.5-11.6,9.8-20.8,16.8-29.8,5.2-6.6,10.5-13.4,14-21.1a123.456,123.456,0,0,0,4.7-13.3l.5-1.6a496.273,496.273,0,0,1,19.6-52.6.919.919,0,1,1,1.7.7,464.115,464.115,0,0,0-19.5,52.4l-.5,1.6a114.222,114.222,0,0,1-4.8,13.5c-3.6,7.9-9,14.8-14.3,21.5-7.2,9.2-14.1,17.9-16.5,29a.789.789,0,0,1-.8.8Z" fill="#010910"/><path d="M410.316,290.838h-.1a.9.9,0,0,1-.338-.105.9.9,0,0,1-.433-.542.9.9,0,0,1-.029-.353c1.7-13.7,10.2-32,22.7-39.1,5.2-3,11.2-4.4,17-5.9,7.5-1.8,14.6-3.6,20.2-8.3a.938.938,0,0,1,.314-.18.913.913,0,0,1,.359-.045.9.9,0,0,1,.349.1.925.925,0,0,1,.285.223.924.924,0,0,1,.219.675.918.918,0,0,1-.1.348.9.9,0,0,1-.226.283c-5.9,5-13.6,6.8-20.9,8.6-5.7,1.4-11.5,2.8-16.6,5.7-12,6.8-20.1,24.5-21.8,37.7a.839.839,0,0,1-.05.355.833.833,0,0,1-.495.495A.84.84,0,0,1,410.316,290.838Z" fill="#010910"/><path d="M409.017,275.038a.961.961,0,0,1-.9-.7c-1.6-8,.9-16.2,3.3-22.4.6-1.6,1.2-3.1,1.8-4.7,2.1-5.3,4.3-10.8,5.2-16.4a36.8,36.8,0,0,0-5.8-25.6c-3.3-4.8-7.7-8.9-12-12.8-1.6-1.5-3.3-3-4.9-4.5-7.7-7.5-11.6-14.2-12.3-21.2a.906.906,0,0,1,1.8-.2c.7,6.6,4.4,13,11.7,20.1l4.8,4.5c4.4,4,8.9,8.1,12.3,13.1a38.738,38.738,0,0,1,6.1,26.9c-.9,5.9-3.1,11.4-5.3,16.8-.6,1.5-1.2,3.1-1.8,4.6-2.3,6-4.7,13.9-3.2,21.4a.922.922,0,0,1-.122.7.924.924,0,0,1-.578.4Z" fill="#010910"/><path d="M410.317,290.838h-.1a.931.931,0,0,1-.358-.123.944.944,0,0,1-.279-.255.935.935,0,0,1-.163-.722c1.1-7.7-1.1-15.7-3.1-22.8l-11.5-40.8a13.994,13.994,0,0,0-2.1-5c-1.5-1.9-3.9-2.9-5.9-3.6a36.861,36.861,0,0,0-11.4-1.9.9.9,0,1,1,0-1.8,37.771,37.771,0,0,1,12,2c2.2.7,5,1.9,6.7,4.2a15.819,15.819,0,0,1,2.4,5.7l11.5,40.8c2,7.3,4.3,15.5,3.2,23.6a.808.808,0,0,1-.9.7Z" fill="#010910"/><path d="M317.917,289.838h-182.7V64.438a12.824,12.824,0,0,1,12.8-12.8h157.2a12.826,12.826,0,0,1,12.8,12.8v225.4Z" fill="#a9d7ff"/><path d="M306.017,51.738h-158.9a11.864,11.864,0,0,0-11.9,11.9v12.5h182.7v-12.5a11.929,11.929,0,0,0-11.9-11.9Z" fill="#ecf5fe"/><path d="M157.017,65.338a2.9,2.9,0,1,1-.85-2.051,2.9,2.9,0,0,1,.85,2.051Z" fill="#fff"/><path d="M168.616,65.338a2.9,2.9,0,1,1-.849-2.051,2.9,2.9,0,0,1,.849,2.051Z" fill="#fff"/><path d="M180.217,65.338a2.9,2.9,0,1,1-.849-2.051,2.9,2.9,0,0,1,.849,2.051Z" fill="#fff"/><path d="M294.817,62.438h-108.7v5.8h108.7Z" fill="#ddeaff"/><path d="M272.817,186.338h-95.6a25.115,25.115,0,0,1-25.1-25.1v-43.9a25.115,25.115,0,0,1,25.1-25.1h95.6a25.115,25.115,0,0,1,25.1,25.1v43.9a25.053,25.053,0,0,1-25.1,25.1Z" fill="#ddeaff"/><path d="M317.917,289.838h-182.7V64.438a12.824,12.824,0,0,1,12.8-12.8h157.2a12.826,12.826,0,0,1,12.8,12.8v225.4Z" fill="#ecf5fe"/><path d="M306.017,51.738h-158.9a11.864,11.864,0,0,0-11.9,11.9v12.5h182.7v-12.5a11.929,11.929,0,0,0-11.9-11.9Z" fill="#64aceb"/><path d="M157.017,65.338a2.9,2.9,0,1,1-.85-2.051,2.9,2.9,0,0,1,.85,2.051Z" fill="#fff"/><path d="M168.616,65.338a2.9,2.9,0,1,1-.849-2.051,2.9,2.9,0,0,1,.849,2.051Z" fill="#fff"/><path d="M180.216,65.338a2.9,2.9,0,1,1-.849-2.051,2.9,2.9,0,0,1,.849,2.051Z" fill="#fff"/><path d="M288.116,186.338h-126.1a9.86,9.86,0,0,1-9.9-9.9v-74.5a9.859,9.859,0,0,1,9.9-9.9h126.1a9.857,9.857,0,0,1,9.9,9.9v74.5a9.988,9.988,0,0,1-9.9,9.9Z" fill="#ecf5fe"/><path d="M317.916,290.838a.9.9,0,0,1-.9-.9V63.638a11.032,11.032,0,0,0-11-11h-158.9a11.034,11.034,0,0,0-11,11v226.3a.9.9,0,1,1-1.8,0V63.638a12.826,12.826,0,0,1,12.8-12.8h158.9a12.825,12.825,0,0,1,12.8,12.8v226.3a.9.9,0,0,1-.9.9Z" fill="#010910"/><path d="M283.916,76.938h-148.1a.9.9,0,0,1,0-1.8h148.1a.9.9,0,0,1,.9.9C284.916,76.538,284.416,76.938,283.916,76.938Z" fill="#010910"/><path d="M245.517,252.138h-41.4a20.57,20.57,0,0,1-20.6-20.6v-41.4a20.57,20.57,0,0,1,20.6-20.6h41.4a20.573,20.573,0,0,1,20.6,20.6v41.4a20.7,20.7,0,0,1-20.6,20.6Z" fill="#2b8dd8"/><path d="M218.717,229.138l-18.7-18.7,7.8-7.8,10.9,10.9,22.4-22.5,7.9,7.8Z" fill="#fff"/><path d="M223.216,99.138a1.9,1.9,0,1,0-1.9-1.9A1.9,1.9,0,0,0,223.216,99.138Z" fill="#2b8dd8"/><path d="M186.617,84.638a2.806,2.806,0,1,1-.214-1.072,2.805,2.805,0,0,1,.214,1.072Z" fill="#2b8dd8"/><path d="M219.917,61.838a4.1,4.1,0,1,1-8.2,0,4.055,4.055,0,0,1,4.1-4.1,4.185,4.185,0,0,1,4.1,4.1Z" fill="#2b8dd8"/><path d="M209.917,270.038a2.008,2.008,0,1,1-.588-1.412A2,2,0,0,1,209.917,270.038Z" fill="#64aceb"/><path d="M217.817,272.038a2,2,0,1,0-2-2A2,2,0,0,0,217.817,272.038Z" fill="#64aceb"/><path d="M227.717,272.038a2,2,0,1,0-2-2A2,2,0,0,0,227.717,272.038Z" fill="#64aceb"/><path d="M239.617,270.038a2.006,2.006,0,1,1-.587-1.412,2,2,0,0,1,.587,1.412Z" fill="#64aceb"/><path d="M247.517,272.038a2,2,0,1,0-2-2A2,2,0,0,0,247.517,272.038Z" fill="#64aceb"/><path d="M289.416,148.838h-41.9a9.86,9.86,0,0,1-9.9-9.9v-41.9a9.859,9.859,0,0,1,9.9-9.9h41.9a9.857,9.857,0,0,1,9.9,9.9v41.9a9.922,9.922,0,0,1-9.9,9.9Z" fill="#2b8dd8"/><path d="M283.917,116.238a1.159,1.159,0,0,0-.079-.466,1.156,1.156,0,0,0-.655-.655,1.159,1.159,0,0,0-.466-.079h-2.6a.961.961,0,0,1-.9-.7c-.1-.2-.2-.5-.3-.7a1.09,1.09,0,0,1,.2-1.2l1.8-1.8a1.152,1.152,0,0,0,0-1.7l-3-3a1.15,1.15,0,0,0-1.7,0l-1.8,1.8a.913.913,0,0,1-1.1.2c-.3-.1-.5-.2-.8-.3a.874.874,0,0,1-.6-.9v-2.6a1.159,1.159,0,0,0-.079-.466,1.156,1.156,0,0,0-.655-.655,1.159,1.159,0,0,0-.466-.079h-4.2a1.158,1.158,0,0,0-.863.338,1.152,1.152,0,0,0-.337.862v2.6a.961.961,0,0,1-.7.9,4.916,4.916,0,0,0-.7.3,1.09,1.09,0,0,1-1.2-.2l-1.8-1.8a1.15,1.15,0,0,0-1.7,0l-3,3a1.15,1.15,0,0,0,0,1.7l1.8,1.8a.913.913,0,0,1,.2,1.1c-.1.3-.2.5-.3.8a.874.874,0,0,1-.9.6h-2.6a1.158,1.158,0,0,0-.863.338,1.152,1.152,0,0,0-.337.862v4.2a1.154,1.154,0,0,0,.733,1.122,1.163,1.163,0,0,0,.467.078h2.6a.961.961,0,0,1,.9.7c.1.2.2.5.3.7a1.094,1.094,0,0,1-.2,1.2l-1.8,1.8a1.15,1.15,0,0,0,0,1.7l3,3a1.152,1.152,0,0,0,1.7,0l1.8-1.8a.913.913,0,0,1,1.1-.2c.3.1.5.2.8.3a.877.877,0,0,1,.6.9v2.6a1.153,1.153,0,0,0,1.2,1.2h4.2a1.152,1.152,0,0,0,.862-.337,1.158,1.158,0,0,0,.338-.863v-2.6a.961.961,0,0,1,.7-.9c.2-.1.5-.2.7-.3a1.09,1.09,0,0,1,1.2.2l1.8,1.8a1.152,1.152,0,0,0,1.7,0l3-3a1.152,1.152,0,0,0,0-1.7l-1.8-1.8a.913.913,0,0,1-.2-1.1,13.189,13.189,0,0,1,.6-1.4h3.3a1.152,1.152,0,0,0,.862-.337,1.158,1.158,0,0,0,.338-.863Zm-17.6,7.7a4.064,4.064,0,0,1-.9-.5,5.012,5.012,0,0,1-1.5-1.4c-.2-.3-.4-.5-.6-.8a3.54,3.54,0,0,1-.4-.9c-.1-.3-.2-.7-.3-1a7.387,7.387,0,0,1,0-2.1,6.009,6.009,0,0,1,8-4.5,5.46,5.46,0,0,1,1.8,1.1c.1.1.3.2.4.4a6.828,6.828,0,0,1,1.5,2.6,5.671,5.671,0,0,1,.1,2.6,5.954,5.954,0,0,1-8.1,4.5Z" fill="#fff"/><path d="M202.016,159.438h-26.7a11.183,11.183,0,0,1-11.2-11.2v-26.7a11.183,11.183,0,0,1,11.2-11.2h26.7a11.183,11.183,0,0,1,11.2,11.2v26.7a11.183,11.183,0,0,1-11.2,11.2Z" fill="#fff"/><path d="M202.716,160.438h-28.2a11.4,11.4,0,0,1-11.4-11.4v-28.3a11.4,11.4,0,0,1,11.4-11.4h28.2a11.4,11.4,0,0,1,11.4,11.4v28.2a11.481,11.481,0,0,1-11.4,11.5Zm-28.2-49.2a9.56,9.56,0,0,0-9.5,9.5v28.2a9.56,9.56,0,0,0,9.5,9.5h28.2a9.56,9.56,0,0,0,9.5-9.5v-28.2a9.56,9.56,0,0,0-9.5-9.5Z" fill="#010910"/><path d="M196.416,137.538l-12.6,7.2a3.023,3.023,0,0,1-4.5-2.6v-14.4a2.989,2.989,0,0,1,4.5-2.6l12.6,7.2a3,3,0,0,1,0,5.2Z" fill="#2b8dd8"/><path d="M266.017,193.138l15.8-.5a5.812,5.812,0,0,0,4.8-2.8l11.8-19.9,30.4,18.1-15.2,25.5a25.955,25.955,0,0,1-23.9,12.7l-23.7-2.3Z" fill="#fff"/><path d="M291.317,227.038h-1.6l-24.6-2.4-.1-32.4,16.7-.5a4.672,4.672,0,0,0,4-2.4l12.3-20.7,32.1,19-15.6,26.2a26.809,26.809,0,0,1-23.2,13.2Zm-24.3-4.1,22.8,2.2a25,25,0,0,0,23-12.2l14.7-24.7-28.8-17.1-11.4,19.1a6.828,6.828,0,0,1-5.6,3.3l-14.9.5Z" fill="#010910"/><path d="M369.317,76.038c-4.9-6.2-13-11.4-21-12-8.5-.6-10.8,7.8-10.9,14.4a82.143,82.143,0,0,1-1.5,13.9c-.4,2.2-7.9,26.3-9,25.6,5.1,3,10.9,4.5,16.7,5.9,5.9,1.4,11.8,2.8,17.8,3.1s12.3-.6,17.5-3.7c.3-8.2.5-16.4-.6-24.6C377.017,90.538,374.317,82.438,369.317,76.038Z" fill="#010910"/><path d="M320.316,188.038l3.8,21.7,1.6,40.9h80c1.6,0,1.9-.6,2-2.3.3-3.4-1.8-7-2.8-10.2a83.823,83.823,0,0,1-2.6-11c-1-6-.9-12-.9-18a100.979,100.979,0,0,0-.3-12.3c-.4-4.1-.9-8.3-1.3-12.4-.7-6.5-1.4-13.1-2.1-19.6-.3-2.6-.4-5.3-.8-7.9a32.669,32.669,0,0,0-31.8-27.3l-14.7-.2h-15.6a32.486,32.486,0,0,0-29.2,21l-7.3,19.3,15.8,9.6a11.875,11.875,0,0,1,6.2,8.7Z" fill="#2b8dd8"/><path d="M405.016,251.538h-77.3a2.881,2.881,0,0,1-2.9-2.8l-1.6-38.9-3.8-21.4a12.454,12.454,0,0,0-5.8-8.5l-16.3-9.9,7.6-20.1a33.363,33.363,0,0,1,30-21.6h15.6l14.7.2a33.458,33.458,0,0,1,32.7,28.1c.3,1.8.4,3.6.6,5.3.1.9.1,1.7.2,2.6l3.4,32a95.992,95.992,0,0,1,.3,10.7v1.7a107.416,107.416,0,0,0,.8,17.9,71.893,71.893,0,0,0,2.6,10.9c.3.9.7,1.9,1.1,2.9,1,2.5,2,5,1.8,7.7-.1,1.7-.5,3.1-2.9,3.1a1.939,1.939,0,0,1-.8.1Zm-105.3-82.3,15,9.1a14.652,14.652,0,0,1,6.7,9.7l3.8,21.6,1.6,39a1,1,0,0,0,1,1h78.2c1,0,1,0,1.1-1.4.2-2.2-.8-4.5-1.7-6.8-.4-1-.8-2.1-1.1-3.1a90.61,90.61,0,0,1-2.6-11.2c-1-6-.9-12.2-.9-18.2v-1.7a91.077,91.077,0,0,0-.3-10.5l-3.4-32a24.839,24.839,0,0,1-.2-2.6,45.884,45.884,0,0,0-.6-5.2,31.535,31.535,0,0,0-30.9-26.5l-14.7-.2h-15.6a31.523,31.523,0,0,0-28.3,20.4Z" fill="#010910"/><path d="M412.717,289.838a7.614,7.614,0,0,0-.1-1.5c-.4-13.2,1.8-28-6.6-38.2l-80.3.3-5.5,39.3h92.5Z" fill="#010910"/><path d="M413.717,290.838h-94.5l5.8-41.2,81.5-.3.3.3c7,8.5,6.9,19.9,6.8,31v7.7a7.534,7.534,0,0,0,.1,1.5Zm-92.4-1.9h90.4v-.5c-.1-2.6,0-5.2,0-7.8.1-10.6.2-21.6-6.1-29.5l-79,.3Z" fill="#010910"/><path d="M364.716,136.838h-23.9l3.5-38.2h18Z" fill="#fff"/><path d="M365.717,137.738h-26l3.7-40h19.7Zm-23.9-1.9h21.9l-2.3-36.3h-16.3Z" fill="#010910"/><path d="M353.316,140.538c12.6,0,23.6-2.4,29.3-5.9a32.884,32.884,0,0,0-17.3-5.2l-14.7-.2h-15.6a34.026,34.026,0,0,0-13.4,3.4C325.916,137.238,338.516,140.538,353.316,140.538Z" fill="#fff"/><path d="M353.316,141.438c-14.8,0-27.8-3.2-32.3-8.1l-.9-.9,1.1-.6a31.287,31.287,0,0,1,13.7-3.5h9.8a.9.9,0,1,1,0,1.8h-9.8a33.326,33.326,0,0,0-11.7,2.7c5,3.9,16.9,6.6,30,6.6,11.2,0,21.4-1.9,27.4-5a34.429,34.429,0,0,0-16.4-4.2.9.9,0,0,1,0-1.8,37.744,37.744,0,0,1,18.7,5.3l1.2.8-1.2.8C377.116,139.138,365.716,141.438,353.316,141.438Z" fill="#010910"/><path d="M357.217,174.538l-5.1-2.1-11.8,19.9a5.587,5.587,0,0,1-4.8,2.8l-53.6,2.1-2.8-2a18.734,18.734,0,0,0-3.1-1.7l-9.9-3.9s-.6,8.1-.5,8.6a2.771,2.771,0,0,1-2.1,3.1l-7.8.8-24.2,2.8c-2.7.1-2.2,2.6.2,2.9l11.5.9-14,1.6c-1.9-.1-2,2.9.2,3l16.7,1.1-14.7.6c-2.3.1-1.8,2.3,0,2.7l17.4,1.9-15-.3c-2.1.1-1.8,2.2,0,2.7,4.4,1.3,35,4.2,42.5,3.5a11.745,11.745,0,0,0,4.1-1l1.7-.7c1.6.3,13.1,1.2,13.1,1.2l48.3,3.4a25.849,25.849,0,0,0,23.9-12.7l14.7-24.7-6.5-5.5A81.564,81.564,0,0,0,357.217,174.538Z" fill="#fff"/><path d="M345.017,229.738h-1.6l-48.3-3.4c-.5,0-10.7-.8-13-1.1l-1.5.6a16.552,16.552,0,0,1-4.4,1c-7.6.7-38.4-2.3-42.9-3.6a2.542,2.542,0,0,1-2.1-2.7,2.368,2.368,0,0,1,1-1.5l-1.1-.1a2.745,2.745,0,0,1-2.4-2.6,2.06,2.06,0,0,1,1.5-1.8l-1-.1a2.464,2.464,0,0,1-2.1-3.8,2.19,2.19,0,0,1,2-1.1l4.2-.5-1.8-.1a3.015,3.015,0,0,1-2.9-2.7c0-.9.8-2,2.7-2.1l24.2-2.8,7.8-.8a1.856,1.856,0,0,0,1.4-2c-.1-.5.2-5.1.5-8.8l.1-1.3,11,4.4a17.45,17.45,0,0,1,3.3,1.8l2.6,1.8,53.3-2.1a4.675,4.675,0,0,0,4-2.4l12.2-20.6.7.3c.7.3,17.8,6.6,26.4,15.7a.918.918,0,0,1-.3,1.5.918.918,0,0,1-.7,0,.911.911,0,0,1-.3-.2c-7.3-7.7-21.6-13.7-25-15l-11.4,19.3a6.832,6.832,0,0,1-5.6,3.3l-53.7,2.1-.4-.2-2.8-2a16.419,16.419,0,0,0-2.9-1.6l-8.7-3.4c-.2,3.4-.4,6.8-.4,7.2a3.73,3.73,0,0,1-2.8,4.1h-.1l-7.8.8-24.2,2.8c-.7,0-1,.2-1,.3,0,.2.3.6,1.2.8l12,.9.1,1.7-.9.1-13.7,1.6h-.1a.52.52,0,0,0-.4.2.63.63,0,0,0,0,.6.6.6,0,0,0,.6.3l16.7,1.1v1.9l-14.7.6a1.983,1.983,0,0,0-.7.2c0,.1.2.5.8.6l17.3,1.8-.1,1.9-15-.3c-.3,0-.5.1-.5.2,0,.2.2.6.8.7,4.2,1.2,34.8,4.2,42.2,3.5a13.779,13.779,0,0,0,3.9-.9l1.9-.7h.2c1.2.2,9.1.8,13.1,1.1l48.3,3.4a25.156,25.156,0,0,0,23.1-12.2l14.7-24.7a.943.943,0,0,1,1.6,1l-14.7,24.7a27.474,27.474,0,0,1-23.4,13.3Z" fill="#010910"/><path d="M287.017,229.438h-.4c-2-.2-4-2.4-5.2-5.4l1.2.2c1,2.6,2.4,4,4.1,4.1,4,.4,8.2-7.2,9.2-16.7a32.866,32.866,0,0,0-.9-12.8c-1-3.3-2.7-5.3-4.5-5.5s-3.6,1-5.3,3.9h-1.2c1.9-3.2,4.4-5.2,6.6-5,2.3.3,4.3,2.5,5.4,6.2a34.663,34.663,0,0,1,1,13.2C295.917,221.838,291.617,229.438,287.017,229.438Z" fill="#2b8dd8"/><path d="M292.417,230.338c-2.4,0-4.9-2-7-5.7l1.3.1c2.1,3.6,4.2,4.9,6.3,4.5,3.9-.7,5.8-9.3,4.1-18.6-1.7-9.4-6.5-16.7-10.4-16a4.809,4.809,0,0,0-3,2.7h-1.3c.9-1.7,2.6-3.4,4-3.7,4.7-.9,9.8,6.5,11.7,16.8s-.3,19-4.9,19.9Z" fill="#010910"/><path d="M336.117,113.938a17.486,17.486,0,0,0,20.4-3.6,66.761,66.761,0,0,0,6-8,20.405,20.405,0,0,0,2.4-4.3,38.8,38.8,0,0,0,.6-4.9c.6-4.4,1.2-8.8,1.7-13.3a5.9,5.9,0,0,0-5.7-6.7c-6.9-.2-13.7-.3-20.6-.5-1.5,0-2.9-.1-4.4-.1a17.616,17.616,0,0,0-2.3,0c-.5,0-.8.5-1.2.8-2.3,1.4-4,2.3-4.8,5a46.84,46.84,0,0,0-1.2,17.5c.5,5.2,1.6,11,5.1,15.1a12.739,12.739,0,0,0,4,3Z" fill="#fff"/><path d="M343.816,116.738a17.545,17.545,0,0,1-8.1-1.9h0a15.426,15.426,0,0,1-4.3-3.3c-3.7-4.3-4.8-10.3-5.3-15.6a47.22,47.22,0,0,1,1.3-17.8c.8-2.9,2.7-4,4.9-5.3l.3-.2c.1-.1.2-.1.3-.2a2.33,2.33,0,0,1,1.3-.7,9.634,9.634,0,0,1,1.7,0h.7l24.9.6a6.5,6.5,0,0,1,5,2.4,6.876,6.876,0,0,1,1.6,5.3l-1.7,13.3c-.1.5-.1,1.1-.2,1.7a32.967,32.967,0,0,1-.4,3.3,16.142,16.142,0,0,1-1.9,3.7l-.6.9a53.573,53.573,0,0,1-6.1,8.1,18.122,18.122,0,0,1-13.4,5.7Zm-9-43.3h-.5l-.2.2c-.2.1-.3.3-.5.4l-.3.2c-2.1,1.2-3.4,2.1-4.1,4.2a47.773,47.773,0,0,0-1.2,17.1c.5,5,1.5,10.6,4.9,14.6a11.611,11.611,0,0,0,3.7,2.9h0a16.574,16.574,0,0,0,19.3-3.4,50.629,50.629,0,0,0,5.9-7.9l.6-.9a12.415,12.415,0,0,0,1.7-3.2,24.039,24.039,0,0,0,.4-3,11.108,11.108,0,0,1,.2-1.8l1.7-13.3a4.722,4.722,0,0,0-1.2-3.9,4.8,4.8,0,0,0-3.7-1.7l-24.9-.6h-.8A1.8,1.8,0,0,1,334.816,73.438Z" fill="#010910"/><path d="M388.616,109.438c-3.3-10.3-5.1-25.2-5.6-27.1-1.9-7.5-7.1-14.1-13.3-18.5a42.98,42.98,0,0,0-21.1-7.2c-7.1-.5-16.6-1-23.1,2.2a10.537,10.537,0,0,0-4.4,15.1c3.6,6.2,10.1,8.3,16.9,8.5,2.8.1,6.2-1.2,8.9-2,3.3-1,6.6-1.9,8.2,2.2,2.4,5.9-.2,14.6-2.4,20.3-.6,1.6-9.6,18.9-10.1,18.5,4,3.1,9.6,3.9,14.6,4.8,11.7,1.9,23.4-1.4,34.4-5.2a2.028,2.028,0,0,0,.8-3.3C390.416,115.538,389.416,112.038,388.616,109.438Z" fill="#010910"/><path d="M361.751,94.841c.563-3.992-1.419-7.572-4.427-8s-5.9,2.468-6.465,6.461,1.419,7.572,4.427,8S361.188,98.834,361.751,94.841Z" fill="#fff"/><path d="M355.817,102.338a1.7,1.7,0,0,1-.7-.1,5.748,5.748,0,0,1-3.5-2,.912.912,0,0,1-.154-.329.928.928,0,0,1,.354-.971.93.93,0,0,1,1.032-.045.946.946,0,0,1,.268.245,4.407,4.407,0,0,0,2.2,1.2,3.832,3.832,0,0,0,3.3-1.3,7.952,7.952,0,0,0,2.1-4.3,7.386,7.386,0,0,0-.8-4.7,4.222,4.222,0,0,0-2.9-2.2.937.937,0,0,1-.793-.722.925.925,0,0,1-.007-.378.991.991,0,0,1,1.1-.8,5.54,5.54,0,0,1,4.2,3.1,9.787,9.787,0,0,1,1,5.9,9.493,9.493,0,0,1-2.6,5.4,5.413,5.413,0,0,1-4.1,2Z" fill="#010910"/><path d="M343.517,206.338a.86.86,0,0,1-.689-.285.876.876,0,0,1-.187-.334.861.861,0,0,1-.024-.381c.2-5.7-3.1-7.9-3.1-7.9a.943.943,0,0,1,1-1.6c.2.1,4.3,2.8,4,9.6a1.065,1.065,0,0,1-1,.9Z" fill="#010910"/><path d="M334.117,101.738a1.232,1.232,0,0,1-1-.5,1.633,1.633,0,0,1-.2-1.2l1.7-6.2a.922.922,0,0,1,1.8.4l-1.5,5.5h2.3a.9.9,0,0,1,0,1.8l-3.1.2Z" fill="#010910"/><path d="M327.417,89.838a.908.908,0,0,1-.8-.4.946.946,0,0,1,.2-1.3,5.367,5.367,0,0,1,5.4-.4.962.962,0,0,1-.9,1.7,3.452,3.452,0,0,0-3.4.3C327.717,89.738,327.617,89.838,327.417,89.838Z" fill="#010910"/><path d="M341.717,88.438a1.232,1.232,0,0,1-.8-.4.973.973,0,0,1,.3-1.3,5.348,5.348,0,0,1,5.4-.2.943.943,0,0,1-1,1.6,3.757,3.757,0,0,0-3.5.2C342.117,88.438,341.917,88.438,341.717,88.438Z" fill="#010910"/><path d="M328.917,92.538c.1.6.5,1.1,1,1a.986.986,0,0,0,.8-1.2c-.1-.6-.5-1.1-1-1a1.238,1.238,0,0,0-.8,1.2Z" fill="#010910"/><path d="M342.517,91.738c.1.6.5,1.1,1,1a.99.99,0,0,0,.375-.144.986.986,0,0,0,.425-1.056c-.1-.6-.5-1.1-1-1a.986.986,0,0,0-.8,1.2Z" fill="#010910"/><path d="M339.316,106.638a1.929,1.929,0,0,0,2.115.679,1.922,1.922,0,0,0,.685-.379,2.092,2.092,0,0,0,.6-2.8,1.933,1.933,0,0,0-2.8-.3,2.017,2.017,0,0,0-.6,2.8Z" fill="#ecf5fe"/><path d="M338.917,107.338a.9.9,0,1,1,0-1.8,2.542,2.542,0,0,0,1.9-.6,1.864,1.864,0,0,0,.5-1.2.948.948,0,0,1,.243-.686.926.926,0,0,1,.3-.222.958.958,0,0,1,.36-.092.976.976,0,0,1,.367.053.95.95,0,0,1,.319.19.954.954,0,0,1,.314.657,4.1,4.1,0,0,1-1,2.6,4.862,4.862,0,0,1-3.3,1.1Z" fill="#010910"/><path d="M329.916,40.438a3.8,3.8,0,1,1-1.113-2.687A3.8,3.8,0,0,1,329.916,40.438Z" fill="#ecf5fe"/><path d="M56.817,102.138a7.6,7.6,0,1,0,5.374,2.226A7.6,7.6,0,0,0,56.817,102.138Zm0,12a4.261,4.261,0,1,1,1.651-.318,4.3,4.3,0,0,1-1.651.318Z" fill="#64aceb"/><path d="M410.317,68.438a7.6,7.6,0,1,0,2.908.578A7.6,7.6,0,0,0,410.317,68.438Zm0,11.9a4.3,4.3,0,1,1,4.3-4.3,4.207,4.207,0,0,1-4.3,4.3Z" fill="#64aceb"/><path d="M35.316,80.338a4.5,4.5,0,1,1-4.5-4.5,4.546,4.546,0,0,1,4.5,4.5Z" fill="#64aceb"/><path d="M11.916,264.538l-2.9-1.6,1.6-2.9a1.544,1.544,0,0,0-2.7-1.5l-1.6,2.9-2.9-1.6a1.544,1.544,0,0,0-1.5,2.7l2.9,1.6-1.6,2.9a1.544,1.544,0,1,0,2.7,1.5l1.6-2.9,2.9,1.6a1.609,1.609,0,0,0,2.1-.6,1.519,1.519,0,0,0-.6-2.1Z" fill="#64aceb"/><path d="M442.117,271.038l-2.9-1.6,1.6-2.9a1.544,1.544,0,1,0-2.7-1.5l-1.6,2.9-2.9-1.6a1.546,1.546,0,0,0-2.285,1.174,1.545,1.545,0,0,0,.785,1.526l2.9,1.6-1.6,2.9a1.536,1.536,0,0,0-.135,1.174,1.545,1.545,0,0,0,1.909,1.061,1.542,1.542,0,0,0,.926-.735l1.6-2.9,2.9,1.6a1.609,1.609,0,0,0,2.1-.6,1.581,1.581,0,0,0-.6-2.1Z" fill="#64aceb"/><path d="M110.216,33.738l-2.9-1.6,1.6-2.9a1.548,1.548,0,0,0,.135-1.174,1.545,1.545,0,0,0-2.835-.326l-1.6,2.9-2.9-1.6a1.544,1.544,0,0,0-1.5,2.7l2.9,1.6-1.6,2.9a1.544,1.544,0,0,0,2.7,1.5l1.6-2.9,2.9,1.6a1.608,1.608,0,0,0,2.1-.6,1.5,1.5,0,0,0-.128-1.718,1.49,1.49,0,0,0-.472-.382Z" fill="#64aceb"/><path d="M324.416,7.438l-2.9-1.6,1.6-2.9a1.544,1.544,0,0,0-2.7-1.5l-1.6,2.9-2.9-1.6a1.544,1.544,0,1,0-1.5,2.7l2.9,1.6-1.6,2.9a1.544,1.544,0,1,0,2.7,1.5l1.6-2.9,2.9,1.6a1.543,1.543,0,0,0,2.1-.6,1.543,1.543,0,0,0-.6-2.1Z" fill="#64aceb"/><path d="M141.717,229.738l4.9-19.7.6-15.1,35.8,7.8.5,32.5Z" fill="#fff"/><path d="M192.716,208.638a81.1,81.1,0,0,0,16.3-1.6c2.4-.4,5-1,6.8-2.7.5-.5,1-1.1.5-2a2.3,2.3,0,0,0-2-1.1c-3.1,0-5.7.2-8.9.2-4.4,0-6.8-.2-11.5-.6C191.816,200.538,179.916,205.038,192.716,208.638Z" fill="#fff"/><path d="M197.017,215.838a81.113,81.113,0,0,0,16.3-1.6c2.4-.4,5-1,6.8-2.7.5-.5,1-1.1.5-2a2.307,2.307,0,0,0-2-1.1c-3.1,0-5.7.2-8.9.2-4.4,0-6.8-.2-11.5-.6C196.217,207.738,184.217,212.238,197.017,215.838Z" fill="#fff"/><path d="M192.016,221.738a81.092,81.092,0,0,0,16.3,1c2.5,0,5.1-.2,7.2-1.6a1.624,1.624,0,0,0,.9-1.9,2.179,2.179,0,0,0-1.8-1.4c-3.1-.5-5.7-.8-8.8-1.2a104.216,104.216,0,0,1-11.3-2.4C192.516,213.638,179.916,216.138,192.016,221.738Z" fill="#fff"/><path d="M186.517,227.238a87.326,87.326,0,0,0,15.9,3.7c2.5.4,5.1.7,7.3-.4a1.744,1.744,0,0,0,1.2-1.7,2.29,2.29,0,0,0-1.6-1.7c-3-1-5.5-1.7-8.4-2.7a85.2,85.2,0,0,1-10.7-4.3C188.317,219.338,175.517,219.738,186.517,227.238Z" fill="#fff"/><path d="M95.717,289.838h49.2l1.7-33.1h-51.9Z" fill="#010910"/><path d="M152.817,194.938l1.8-15.8a44.474,44.474,0,0,0-13.3-37.4,31.8,31.8,0,0,0-7.5-5.5l-13.6-5.7-7.8,61.1Z" fill="#fff"/><path d="M47.816,289.838h62.5l3.7-33.1h-66.2Z" fill="#010910"/><path d="M47.817,256.738l-1.4-92.7c-1.2-14.3,8.7-27.4,24.1-31.8,11.5-3.3,34.6-3.2,49.1-.8,21.1,3.5,28.2,17.1,29.7,36.1l-2.6,89.3h-98.9Z" fill="#fff"/><path d="M47.717,250.538l.1,6.2h98.9l.2-6.2Z" fill="#2b8dd8"/><path d="M70.517,132.138a36.821,36.821,0,0,0-13.7,7.3h81.3c-4.4-4-10.4-6.8-18.5-8.2-2.4-.4-5.1-.7-7.9-1h-31a71.94,71.94,0,0,0-10.2,1.9Z" fill="#2b8dd8"/><path d="M47.417,226.538l.1,9.1h99.8l.3-9.1Z" fill="#2b8dd8"/><path d="M46.717,178.438l.1,9.1h106.6l1.2-9.1Z" fill="#2b8dd8"/><path d="M47.017,202.438l.1,9.2h100.9l.3-9.2Z" fill="#2b8dd8"/><path d="M47.317,154.338a27.989,27.989,0,0,0-.9,9.2h107.2a23.168,23.168,0,0,0-3.7-9.2Z" fill="#2b8dd8"/><path d="M147.717,257.638H46.917l-1.4-93.6c-1.3-14.7,8.9-28.2,24.7-32.7,11.9-3.4,35.3-3.2,49.5-.9a39.053,39.053,0,0,1,15.6,5.8.961.961,0,0,1,.268.252.942.942,0,0,1-.221,1.316.931.931,0,0,1-.335.151.935.935,0,0,1-.712-.119,37.652,37.652,0,0,0-14.9-5.5c-14.1-2.3-37-2.6-48.7.8-15,4.3-24.6,17-23.4,30.9l1.4,91.9h97.1l.7-72.6a.9.9,0,0,1,.9-.9h0a.9.9,0,0,1,.9.9Z" fill="#010910"/><path d="M193.917,200.738l-7.8-.8a2.771,2.771,0,0,1-2.1-3.1c.1-.5-.5-8.6-.5-8.6l-9.9,3.9a13.472,13.472,0,0,0-3.1,1.7l-2.8,2-53.6-2.1a5.808,5.808,0,0,1-4.8-2.8l-4.6-6.6-2.4.7a48.924,48.924,0,0,0-26.6,19.8h0l6.4,9.8a25.953,25.953,0,0,0,23.9,12.7l48.3.5s11.5-.9,13.1-1.2l1.7.7a18.9,18.9,0,0,0,4.1,1c3.2.3,10.7-.1,18.5-.7C191.917,227.338,203.617,213.738,193.917,200.738Z" fill="#fff"/><path d="M200.417,209.038c-2.7,0-4.6-.2-4.8-.2a.9.9,0,0,1-.8-1,.847.847,0,0,1,.317-.629.846.846,0,0,1,.683-.171c.1,0,11.1,1,17-1.9,2.8-1.4,2.8-2.2,2.7-2.2,0-.2-.4-.5-.8-.7l-20.8-.5-8-.9a3.584,3.584,0,0,1-2.8-4.1c0-.4-.2-3.8-.4-7.1l-8.7,3.4a11.83,11.83,0,0,0-2.9,1.6l-3.2,2.1h-.2l-53.6-2.1a6.828,6.828,0,0,1-5.6-3.3l-4.2-6-1.7.5a47.758,47.758,0,0,0-20.7,12.7.919.919,0,0,1-1.3-1.3,48.922,48.922,0,0,1,21.6-13.2l3-.9,5,7.2a4.745,4.745,0,0,0,4.1,2.4l53.3,2.1,2.6-1.8a17.418,17.418,0,0,1,3.3-1.8l11.1-4.4.1,1.3c.3,3.8.6,8.3.5,8.8a1.856,1.856,0,0,0,1.4,2l7.8.8,21,.5h.1c.2.1,2.1.8,2.2,2.4.1,1.4-1.1,2.7-3.8,4C209.817,208.638,204.317,209.038,200.417,209.038Z" fill="#010910"/><path d="M205.017,232.138c-7.6,0-17-3.3-18.6-3.9-2.4.2-4.3.4-5.9.5a37.685,37.685,0,0,1-7.2.3,16.534,16.534,0,0,1-4.4-1l-1.5-.6c-2.3.3-12.5,1.1-13,1.1l-48.4-.5a26.754,26.754,0,0,1-24.7-13.2l-6.4-9.7a.944.944,0,0,1,.032-1.048.96.96,0,0,1,.268-.252.947.947,0,0,1,.344-.13.931.931,0,0,1,.368.011.943.943,0,0,1,.588.419l6.4,9.8a25.238,25.238,0,0,0,23.1,12.3l48.4.5c3.9-.3,11.7-.9,13-1.1h.2l1.9.7a12.353,12.353,0,0,0,3.9.9,34.7,34.7,0,0,0,6.9-.3c1.6-.2,3.5-.3,6.1-.5h.2l.2.1c.2.1,15.2,5.6,22.6,3.3.4-.3.9-.7.9-.9,0,0-.1-.8-3.3-1.7l-17.7-5a.949.949,0,0,1,.6-1.8l17.7,5c3,.8,4.4,1.9,4.6,3.3.2,1.7-1.7,2.7-1.9,2.8l-.1.1a28.628,28.628,0,0,1-5.2.5Z" fill="#010910"/><path d="M84.616,129.938l13.4,30.4a.654.654,0,0,0,.409.287.645.645,0,0,0,.492-.087l13.9-13.1Z" fill="#fff"/><path d="M98.517,161.538h-.3a1.55,1.55,0,0,1-1.1-.8l-13.4-30.4a.919.919,0,0,1,1.7-.7l13.1,29.8,13.5-12.7a.911.911,0,0,1,.3-.2.919.919,0,0,1,1,1.5l-13.8,13.1a1.283,1.283,0,0,1-1,.4Z" fill="#010910"/><path d="M126.217,151.238l-15.5-21.7,2.1,17.8,12.7,4.7C126.017,152.238,126.417,151.738,126.217,151.238Z" fill="#fff"/><path d="M125.716,153.038a.9.9,0,0,1-.5-.1l-12.7-4.7a.949.949,0,0,1,.6-1.8l11.6,4.3-12.7-18.9a.943.943,0,0,1,1.6-1l13.4,20a1.53,1.53,0,0,1-.2,1.7A1.6,1.6,0,0,1,125.716,153.038Z" fill="#010910"/><path d="M152.816,195.838h-.1a.9.9,0,0,1-.338-.1.9.9,0,0,1-.433-.542.9.9,0,0,1-.029-.353l1.8-15.8a43.954,43.954,0,0,0-13-36.6,28.312,28.312,0,0,0-7.3-5.3.894.894,0,0,1,.8-1.6,29.433,29.433,0,0,1,7.8,5.6,45.862,45.862,0,0,1,13.6,38.2l-1.8,15.8a.991.991,0,0,1-1,.7Z" fill="#010910"/><path d="M197.016,216.738a.9.9,0,0,1-.344-.068.918.918,0,0,1-.292-.195.9.9,0,0,1-.264-.637,1.065,1.065,0,0,1,.9-1,80.6,80.6,0,0,0,16.1-1.6c2.3-.4,4.7-.9,6.3-2.5.5-.5.5-.7.4-.9a1.219,1.219,0,0,0-1.2-.6c-1.7,0-4.7-.1-7.5-.1-2.5-.1-4.8-.1-6.2-.1a.9.9,0,0,1-.9-.9.987.987,0,0,1,1-.9c1.5,0,3.8.1,6.2.1,2.8.1,5.8.2,7.5.1a3.13,3.13,0,0,1,2.9,1.6,2.539,2.539,0,0,1-.7,3.1c-2,1.9-4.7,2.5-7.3,3a87.912,87.912,0,0,1-16.6,1.6Z" fill="#010910"/><path d="M204.217,223.638a74.527,74.527,0,0,1-12.3-1,.907.907,0,0,1-.8-.644.906.906,0,0,1,.637-1.135.911.911,0,0,1,.36-.021,78.4,78.4,0,0,0,16.2,1c2.4,0,4.8-.2,6.7-1.4.6-.4.6-.6.5-.8a1.481,1.481,0,0,0-1.1-.8c-1.7-.2-3.8-.7-5.8-1.1-1.8-.4-3.6-.7-5-.9a.949.949,0,0,1-.36-.125.967.967,0,0,1-.283-.254.98.98,0,0,1-.162-.344.954.954,0,0,1-.016-.38.969.969,0,0,1,.132-.357.958.958,0,0,1,.261-.277.945.945,0,0,1,.347-.155.958.958,0,0,1,.381-.008c1.5.2,3.2.6,5.1.9,2,.4,4.1.8,5.7,1a3.322,3.322,0,0,1,2.6,2.1,2.35,2.35,0,0,1-1.2,2.9c-2.2,1.6-5,1.7-7.7,1.8Z" fill="#010910"/><path d="M103.117,290.838h-.2a1.084,1.084,0,0,1-.8-1.1l2.1-12.4,9.2-8a.922.922,0,0,1,1.2,1.4l-8.7,7.5-2,11.7a.821.821,0,0,1-.2.626.834.834,0,0,1-.27.2.822.822,0,0,1-.327.074Z" fill="#010910"/><path d="M47.817,290.838a.9.9,0,0,1-.9-.9l.1-33.2a.9.9,0,0,1,.9-.9h0a.9.9,0,0,1,.9.9l-.1,33.2a.9.9,0,0,1-.9.9Z" fill="#010910"/><path d="M144.917,290.838a.864.864,0,0,1-.9-1l1.9-33.2a.938.938,0,0,1,.091-.36.953.953,0,0,1,.541-.487.978.978,0,0,1,.368-.053.953.953,0,0,1,.359.092.944.944,0,0,1,.487.541.955.955,0,0,1,.054.367l-1.9,33.2a1.065,1.065,0,0,1-1,.9Z" fill="#010910"/><path d="M183.517,236.238h-.1l-36-4.8a.907.907,0,0,1-.8-.644.909.909,0,0,1,.078-.7.907.907,0,0,1,.919-.454l36,4.8a.919.919,0,0,1,.338.1.928.928,0,0,1,.271.228.912.912,0,0,1,.162.314.9.9,0,0,1,.029.353,1.063,1.063,0,0,1-.9.8Z" fill="#010910"/><path d="M85.417,130.438l26.5,15.8-3.4-44.7h-23.1Z" fill="#fff"/><path d="M113.017,148.038l-28.5-17.1v-30.3h24.9Zm-26.7-18.2,24.5,14.7-3.2-42.1h-21.3Z" fill="#010910"/><path d="M88.517,98.338A4.691,4.691,0,1,1,86.9,95.161a4.662,4.662,0,0,1,1.617,3.177Z" fill="#fff"/><path d="M83.817,104.238a5.879,5.879,0,0,1-3.7-1.4,5.589,5.589,0,0,1-1.9-3.8,5.334,5.334,0,0,1,1.4-4,5.591,5.591,0,0,1,3.8-1.9,5.712,5.712,0,0,1,4.1,1.4,5.592,5.592,0,0,1,1.9,3.8,5.335,5.335,0,0,1-1.4,4,5.587,5.587,0,0,1-3.8,1.9Zm0-9.3h-.3a3.437,3.437,0,0,0-2.5,1.3,3.322,3.322,0,0,0-.9,2.7,3.433,3.433,0,0,0,1.3,2.5,3.32,3.32,0,0,0,2.7.9,3.436,3.436,0,0,0,2.5-1.3,3.321,3.321,0,0,0,.9-2.7h0a3.436,3.436,0,0,0-1.3-2.5,3.923,3.923,0,0,0-2.4-.9Z" fill="#010910"/><path d="M109.417,122.838a22.725,22.725,0,0,1-24-19l-3.9-23.8s39.5-13.1,42.4-2.9c2.3,8.1,1.1,22.2-.3,32.4a15.351,15.351,0,0,1-14.2,13.3Z" fill="#fff"/><path d="M107.817,123.838a23.6,23.6,0,0,1-23.4-20.6.963.963,0,0,1,.8-1.121.974.974,0,0,1,.38.016.961.961,0,0,1,.344.163.962.962,0,0,1,.379.642,21.69,21.69,0,0,0,23.1,18.9,14.586,14.586,0,0,0,13.4-12.5v-.3a122.432,122.432,0,0,0,1.3-26,.951.951,0,0,1,1.9-.1,125.2,125.2,0,0,1-1.3,26.4v.3a16.4,16.4,0,0,1-15.1,14.1,12.042,12.042,0,0,1-1.8.1Z" fill="#010910"/><path d="M114.217,109.638h-.1l-2.5-.3a.9.9,0,0,1-.627-.326.914.914,0,0,1-.17-.318.889.889,0,0,1-.032-.359.906.906,0,0,1,1.029-.8l1.6.2-1.6-7.2a.922.922,0,1,1,1.8-.4l1.8,8.1a1.129,1.129,0,0,1-.3,1.1,1.222,1.222,0,0,1-.9.3Z" fill="#010910"/><path d="M110.416,114.438a3.136,3.136,0,0,1-2.1-.7,4,4,0,0,1-1.4-2.6.951.951,0,1,1,1.9-.1,2,2,0,0,0,.7,1.3,2.237,2.237,0,0,0,1.7.2.922.922,0,0,1,.4,1.8C111.116,114.338,110.716,114.438,110.416,114.438Z" fill="#010910"/><path d="M114.016,95.738a.908.908,0,0,1-.7-.3,1.051,1.051,0,0,1,0-1.3,5.915,5.915,0,0,1,6-1.1.949.949,0,1,1-.6,1.8,4.589,4.589,0,0,0-4.1.7A1.071,1.071,0,0,1,114.016,95.738Z" fill="#010910"/><path d="M99.917,97.938a1.08,1.08,0,0,1-.7-.3.853.853,0,0,1,0-1.3,5.98,5.98,0,0,1,5.9-1.4.949.949,0,0,1-.6,1.8,4.285,4.285,0,0,0-4.1.9.55.55,0,0,1-.5.3Z" fill="#010910"/><path d="M118.416,98.438a1.233,1.233,0,0,1-.8,1.5,1.209,1.209,0,0,1-1.3-1.1,1.235,1.235,0,0,1,.8-1.5,1.208,1.208,0,0,1,1.3,1.1Z" fill="#010910"/><path d="M105.317,100.838a1.232,1.232,0,0,1-.8,1.5,1.208,1.208,0,0,1-1.3-1.1,1.232,1.232,0,0,1,.8-1.5,1.208,1.208,0,0,1,1.3,1.1Z" fill="#010910"/><path d="M125.916,59.938a13.389,13.389,0,0,0-11.1,3.8,10.334,10.334,0,0,0-6.7-3.8,9.932,9.932,0,0,0-9.7,4.6c-.3-.1-.6-.1-1-.2a10.8,10.8,0,0,0-11.2,6.2,11.5,11.5,0,0,0-10.5,10,12.046,12.046,0,0,0,1.7,7.6c1.3,2.1,3.9,3.2,5.3,5.3,1.7,2.7,2.4,6.5,3.8,9.5.2.3.3.7.7.8.8.4,1.5-.7,1.7-1.6.3-1.5.2-3.1.4-4.7a5.594,5.594,0,0,1,2-4.1,9.335,9.335,0,0,1,3.6-1.4,10,10,0,0,0,4-2.3,5.227,5.227,0,0,0,1.5-4.3c.2,1.6,5,2.8,6.3,3a11.714,11.714,0,0,0,10.1-3.7c.1,0,.1,0,.2-.1a14.518,14.518,0,0,0,5.5,2,13.473,13.473,0,0,0,15-11.6,13.275,13.275,0,0,0-11.6-15Z" fill="#2b8dd8"/><path d="M460.916,290.838H6.716a.9.9,0,0,1,0-1.8h454.2a.9.9,0,1,1,0,1.8Z" fill="#fff"/></g></svg>