<svg xmlns="http://www.w3.org/2000/svg" xmlns:xlink="http://www.w3.org/1999/xlink" viewBox="0 0 402.4 401.8"><style>
@keyframes join-a0_t { 0% { transform: translate(201.2px,200.9px) rotate(0deg) translate(-201.4px,-200.9px); } 100% { transform: translate(201.2px,200.9px) rotate(360deg) translate(-201.4px,-200.9px);  }  } path, rect {fill: #fff;}
</style><defs><symbol id="join-Symbol-1" preserveAspectRatio="none" width="402.7" height="401.8" viewBox="0 0 402.7 401.8" overflow="visible"><g transform="translate(.1,0)"><path d="M202.1 0v17.9c.1 1.1-0.3 2.3-1 3.2c-0.9 .7-1.9 1.1-3 1c-0.8 0-1.6-0.2-2.3-0.6c-0.8-0.4-1.6-0.9-2.4-1.4v5c.9 .4 1.8 .7 2.7 1c1.1 .3 2.1 .4 3.2 .4c1 0 1.9-0.2 2.9-0.4c.9-0.2 1.8-0.7 2.6-1.3c.8-0.7 1.5-1.6 1.9-2.6c.5-1.3 .7-2.6 .7-4v-18.2Z"/><path d="M217.2 25.6c1.9 1.3 4.1 2.1 6.4 2.3c4 .5 7.2-0.3 9.6-2.2c2.4-2 3.9-5.2 4.5-9.6c.4-2.6 .2-5.2-0.6-7.7c-0.6-2-1.9-3.8-3.6-5c-2-1.2-4.2-2-6.5-2.3c-3.9-0.5-7.1 .3-9.5 2.3c-2.4 1.9-3.9 5.1-4.5 9.6c-0.4 2.5-0.2 5.2 .6 7.6c.6 2 1.9 3.8 3.6 5Zm1.3-11.9c.1-1.8 .6-3.5 1.4-5.2c.6-1.1 1.5-2 2.7-2.5c2.5-0.9 5.3-0.5 7.6 1c1 .8 1.7 1.9 1.9 3.1c.6 3.5 .2 7.2-1.3 10.4c-0.6 1.2-1.5 2.1-2.7 2.6c-2.5 .9-5.3 .5-7.6-1c-1-0.8-1.7-1.9-1.9-3.1c-0.4-1.8-0.4-3.6-0.1-5.3Z"/><rect width="26" height="5.3" transform="translate(-66.9,426.6) rotate(-76.5) translate(457.2,205.6)"/><path d="M254.8 34.2l6-16.6l6.4 21l4 1.5l8.8-24.5l-4.6-1.6l-5.9 16.2l-6.1-20.5l-4.4-1.6l-8.8 24.4l4.6 1.7Z"/><path d="M294.6 52.8l11.3-18.6l6.8 4.2l2.2-3.7l-18-10.9l-2.2 3.6l6.7 4.1l-11.4 18.6l4.6 2.7Z"/><path d="M307.9 62l6.7-8.3l8.4 6.8l-6.8 8.3l4.1 3.4l16.5-20.2l-4.1-3.3l-6.9 8.4l-8.3-6.9l6.8-8.4l-4.1-3.3l-16.5 20.1l4.2 3.4Z"/><path d="M335.7 88.5l3.1-2.9l-8.2-8.9l4.8-4.5l7.2 7.7l3.2-2.9l-7.2-7.7l4.8-4.5l8.2 8.9l3.2-2.9l-11.9-12.8l-19.1 17.7l11.9 12.8Z"/><path d="M354.3 115.4l3.6-2.3l-6.5-10.3l5.6-3.5l5.7 8.9l3.6-2.2l-5.6-8.9l5.6-3.6l6.4 10.3l3.6-2.3l-9.3-14.7l-22 13.8l9.3 14.8Z"/><path d="M355.7 117.5l2.4 5.3l10.6 1.5l-5.6 9.3l2.7 6l8.1-13.5l15.4 2.5l-2.4-5.5l-10.5-1.3l5.6-9.3l-2.7-6l-8.1 13.5l-15.5-2.5Z"/><path d="M368 147.1l8.6-2.5l1.6 5.4c.5 2.5 2 4.7 4.1 6.1c2.2 1.2 4.7 1.4 7 .6c2.6-0.8 4.4-2.2 5.3-4.2c.8-2 .8-4.4 0-7.3l-3.2-10.6l-24.9 7.4Zm20.9-6.2l1.4 4.8c.2 .8 .3 1.5 .3 2.3c0 .6-0.2 1.1-0.5 1.6c-0.3 .4-0.7 .8-1.1 1.1c-0.5 .3-1.1 .5-1.6 .7c-0.5 .1-1.1 .2-1.6 .2c-0.5 0-1-0.1-1.5-0.3c-0.5-0.2-0.9-0.6-1.3-1.1c-0.4-0.6-0.7-1.3-0.9-2l-1.4-4.9Z"/><path d="M375.7 182.8l4.2-0.6l-1.8-12l6.5-1l1.6 10.4l4.2-0.6l-1.5-10.4l6.5-1l1.8 11.9l4.2-0.6l-2.7-17.3l-25.7 4l2.7 17.2Z"/><path d="M376.3 192.8l9.4-0.2l.1 4.7l-9.3 5.8l.1 6.7l10.2-7c.3 .9 .7 1.8 1.3 2.5c.7 1 1.7 1.7 2.8 2.2c1.2 .5 2.4 .7 3.6 .7c2.7 0 4.7-0.9 6-2.4c1.4-1.9 2.1-4.3 1.9-6.6l-0.2-12.2l-26 .5Zm21.8-0.4l.1 6.2c.1 1.1-0.3 2.2-1 3c-0.9 .7-2 1-3 1c-1.2 .1-2.4-0.3-3.3-1.1c-0.7-0.9-1.1-2.1-1-3.2l-0.1-5.7Z"/><rect width="5.3" height="26" transform="translate(-70.2,793.2) rotate(-85) translate(610.6,394.4)"/><path d="M372 241.3l4.1 .8l2.2-12l6.5 1.2l-1.9 10.4l4.3 .8l1.8-10.4l6.5 1.2l-2.1 11.9l4.1 .8l3.2-17.2l-25.6-4.7l-3.1 17.2Z"/><path d="M369.4 250.6l16.7 5.5l-20.8 6.9l-1.4 4.1l24.7 8.2l1.5-4.7l-16.4-5.4l20.4-6.6l1.5-4.5l-24.6-8.2l-1.6 4.7Z"/><path d="M374.1 276.3c-4.1-2-7.6-2.6-10.6-1.7c-2.9 .9-5.3 3.2-7.1 6.9c-0.4 .8-0.8 1.7-1.1 2.6c-0.3 .9-0.5 1.9-0.7 2.8c-0.1 .9-0.2 1.8-0.2 2.7l4.1 2.1c-0.1-1.4 0-2.8 .2-4.2c.2-1.1 .6-2.2 1.1-3.3c.6-1.4 1.6-2.6 2.8-3.6c1.1-0.8 2.4-1.1 3.8-1c3.6 .5 7 2.2 9.6 4.8c.9 1.1 1.4 2.4 1.5 3.7c-0.1 1.5-0.4 3-1.2 4.3c-0.5 1.1-1.2 2.1-2.1 3c-1 1-2.1 1.9-3.3 2.6l4.2 2.1c1.1-0.9 2.1-1.9 3-3c.9-1 1.7-2.2 2.3-3.4c2-3.8 2.4-7.1 1.3-10c-1.1-2.9-3.7-5.4-7.7-7.4Z"/><path d="M341 306.9l3.6 2.4l6.8-10l5.5 3.7l-6 8.7l3.5 2.5l6-8.7l5.4 3.7l-6.8 10l3.5 2.4l9.9-14.4l-21.5-14.7l-9.9 14.4Z"/><path d="M195.6 375.5c-1-0.1-1.9 0-2.9 .2c-0.9 .3-1.8 .7-2.6 1.3c-0.9 .6-1.6 1.5-2 2.4c-0.6 1.3-0.9 2.7-0.9 4.1l-0.6 18.1l5.3 .1l.6-17.8c-0.1-1.2 .4-2.3 1.2-3.2c.8-0.7 1.9-1 3-0.9c.8 .1 1.5 .3 2.3 .7c.7 .4 1.5 .9 2.2 1.5l.2-5c-0.9-0.4-1.8-0.8-2.7-1.1c-1-0.3-2-0.4-3.1-0.4Z"/><path d="M177.7 375.5c-1.8-1.3-4-2.2-6.3-2.5c-3.9-0.7-7.1-0.1-9.6 1.8c-2.5 1.9-4.2 5-4.9 9.4c-0.5 2.5-0.5 5.2 .2 7.7c.5 2 1.7 3.8 3.4 5.1c1.9 1.3 4 2.2 6.3 2.6c3.9 .6 7.1 0 9.6-1.8c2.5-1.9 4.2-5 4.9-9.4c.6-2.6 .5-5.2-0.1-7.7c-0.6-2.1-1.8-3.9-3.5-5.2Zm-1.7 11.9c-0.3 1.8-0.8 3.4-1.7 5c-0.6 1.1-1.6 2-2.8 2.4c-1.2 .5-2.6 .6-3.9 .3c-1.3-0.2-2.6-0.7-3.6-1.5c-1-0.9-1.6-2-1.8-3.3c-0.3-1.7-0.3-3.5 .1-5.3c.2-1.7 .8-3.4 1.7-5c.6-1.1 1.6-2 2.7-2.4c2.6-0.8 5.4-0.3 7.6 1.3c1 .8 1.6 1.9 1.8 3.2c.3 1.8 .2 3.6-0.1 5.3Z"/><rect width="26" height="5.3" transform="translate(-503.8,581.9) rotate(-73.9) translate(360.7,568.9)"/><path d="M140.6 365.3l-6.7 16.3l-5.4-21.3l-4.1-1.7l-9.9 24.1l4.6 1.9l6.6-16l5.2 20.8l4.4 1.8l9.9-24l-4.6-1.9Z"/><path d="M101.7 344.9l-12.1 18.1l-6.6-4.5l-2.4 3.6l17.5 11.7l2.4-3.5l-6.5-4.4l12.1-18l-4.4-3Z"/><path d="M88.8 335.2l-7.1 7.9l-8.1-7.2l7.2-8l-4-3.5l-17.3 19.4l3.9 3.5l7.3-8l8 7.2l-7.2 8l4 3.6l17.3-19.4l-4-3.5Z"/><path d="M62.2 307.4l-3.3 2.8l7.9 9.2l-5.1 4.3l-6.8-8l-3.3 2.7l6.8 8.1l-5 4.2l-7.8-9.2l-3.3 2.8l11.3 13.3l19.9-16.9l-11.3-13.3Z"/><path d="M48.6 286.4c-2.1-3.7-4.6-6-7.5-6.7c-2.9-0.8-6.2-0.1-10 2c-3.7 2-6.1 4.5-7 7.4c-0.9 2.8-0.3 6.2 1.8 10l4.7 8.5l22.8-12.6Zm-16.9 14.5l-1.9-3.4c-1.2-2.3-1.6-4.3-1-6.2c.6-1.8 2.3-3.4 4.9-4.9c2.7-1.5 5-2 6.8-1.5c1.9 .5 3.4 1.8 4.7 4.1l1.9 3.4Z"/><rect width="26" height="5.3" transform="translate(-385.2,-55.1) rotate(-22.9) translate(239.7,461.4)"/><path d="M19.4 268c1-0.3 1.9-0.8 2.7-1.4c.7-0.6 1.2-1.3 1.5-2c.4-0.8 .6-1.6 .7-2.4c.1-0.9 .2-1.7 .2-2.6c0-1.2 .1-2.3 .1-3.3c0-0.9 .2-1.8 .5-2.6c.3-0.7 .9-1.2 1.6-1.4c.9-0.4 1.9-0.2 2.6 .3c.9 .7 1.5 1.7 1.8 2.8c.5 1.4 .7 2.9 .6 4.4c0 1.5-0.3 3-0.8 4.4l4.9-1.6c.2-0.9 .3-1.8 .3-2.8c0-0.9-0.1-1.9-0.3-2.9c-0.2-1.1-0.5-2.2-0.9-3.3c-0.4-1.7-1.3-3.3-2.6-4.6c-1-1-2.3-1.7-3.7-2c-1.4-0.2-2.8-0.1-4.1 .3c-1 .3-2 .8-2.8 1.5c-0.6 .6-1.1 1.3-1.5 2.2c-0.3 .8-0.5 1.7-0.6 2.7c-0.1 1-0.1 2-0.1 3c0 1.1 0 2-0.1 2.9c0 .8-0.2 1.5-0.6 2.2c-0.3 .6-0.9 1-1.6 1.2c-0.6 .2-1.2 .2-1.8 0c-0.6-0.2-1.1-0.6-1.4-1.2c-0.5-0.6-0.8-1.4-1-2.2c-0.3-0.8-0.4-1.7-0.4-2.6c0-0.8 .1-1.6 .3-2.4c.1-0.8 .3-1.6 .6-2.3l-4.9 1.6c-0.2 .8-0.3 1.6-0.3 2.4c0 .8 0 1.6 .1 2.4c.2 .9 .4 1.8 .7 2.7c.4 1.4 1.1 2.7 1.9 3.9c.7 .9 1.6 1.7 2.6 2.2c.9 .5 1.9 .8 2.9 .9c1 0 2-0.1 2.9-0.4Z"/><path d="M18.2 244.7c4.5-0.8 7.6-2.4 9.4-4.9c1.8-2.5 2.3-5.8 1.6-9.9c-0.4-1.8-1-3.7-1.9-5.4c-0.4-0.8-0.8-1.5-1.4-2.3l-4.6 .9c1 1 1.8 2.2 2.4 3.4c.5 1 .9 2.2 1.1 3.3c.4 1.5 .3 3.1 0 4.6c-0.4 1.3-1.3 2.4-2.4 3.1c-3.3 1.7-7 2.4-10.7 1.9c-1.3-0.3-2.5-1-3.3-2.1c-0.9-1.2-1.5-2.6-1.7-4c-0.2-1.3-0.2-2.5-0.1-3.7c.2-1.4 .6-2.8 1.1-4.1l-4.6 .8c-0.3 1.4-0.6 2.8-0.7 4.2c-0.1 1.4 0 2.8 .3 4.2c.7 4.2 2.4 7.1 5 8.7c2.6 1.7 6.1 2.1 10.5 1.3Z"/><path d="M3.7 216.5c2.3 2.1 5.7 3 10.2 2.9c2.6 0 5.1-0.6 7.5-1.7c1.9-1 3.4-2.5 4.3-4.4c1-2.1 1.4-4.4 1.2-6.7c-0.1-4-1.3-7-3.6-9.1c-2.4-2-5.8-3-10.2-2.9c-2.6 0-5.2 .6-7.5 1.7c-1.9 1-3.4 2.5-4.3 4.4c-1 2.1-1.4 4.4-1.3 6.7c.1 4 1.4 7 3.7 9.1Zm1.5-13.1c.7-1.1 1.6-1.9 2.8-2.4c3.4-1.1 7.1-1.2 10.5-0.3c1.2 .4 2.3 1.1 3 2.2c.7 1.2 1 2.5 1 3.8c.1 1.4-0.2 2.7-0.8 3.9c-0.6 1.1-1.6 1.9-2.8 2.4c-3.3 1.1-7 1.3-10.4 .3c-1.3-0.4-2.3-1.1-3-2.2c-0.7-1.2-1.1-2.5-1-3.8c-0.1-1.3 .1-2.7 .7-3.9Z"/><path d="M27.8 178.6l-24.7-13l-0.6 5.6l19.1 9.1l-20.7 4.7l-0.7 6l27-6.8l.6-5.6Z"/><path d="M34 149.1l-4.1-1l-3 11.7l-6.4-1.6l2.6-10.2l-4.2-1.1l-2.6 10.2l-6.4-1.6l3-11.8l-4.1-1l-4.3 16.9l25.2 6.4l4.3-16.9Z"/><path d="M37.4 139.7l-8.7-3.6l1.8-4.3l10.8-1.7l2.5-6.2l-12.1 2.4c.1-0.9 0-1.9-0.2-2.8c-0.3-1.2-0.9-2.2-1.8-3.1c-0.8-0.9-1.9-1.6-3-2.1c-2.5-1-4.6-1-6.4-0.1c-2.1 1.2-3.6 3.1-4.4 5.3l-4.6 11.3l24.1 9.8Zm-10.3-10.4l-2.2 5.3l-7.6-3.1l2.3-5.8c.3-1 1.1-1.9 2.1-2.3c1-0.3 2.1-0.2 3.1 .3c1.1 .3 2.1 1.1 2.5 2.2c.4 1.2 .2 2.4-0.3 3.4Z"/><path d="M48.3 116.2l2.6-4.6l-9.9-5.7l-8.1-15.2l-2.7 4.7l6 10.3l-12.2 .5l-3.2 5.6l17.5-1.3l10 5.7Z"/><path d="M181.7 17.3l-0.7-6.2c-51.6 5.7-98.7 32-130.4 73l4.8 3.8c30.8-39.7 76.4-65.2 126.3-70.6Z"/><path d="M210.2 386.6l.3 6.2c53.9-2.4 104.3-27.5 138.7-69l-4.7-3.9c-33.3 40.2-82.1 64.4-134.3 66.7Z"/></g></symbol></defs><use width="402.7" height="401.8" xlink:href="#join-Symbol-1" transform="translate(201.2,200.9) translate(-201.4,-200.9)" style="animation: 8s linear infinite both join-a0_t;"/></svg>
