<svg xmlns="http://www.w3.org/2000/svg" width="489.102" height="289.341" viewBox="0 0 489.102 289.341"><g transform="translate(-0.438 -0.659)"><path d="M478.438,197.3a109.978,109.978,0,0,0-2.8-27.6c-7.7-32.5-32.1-57.6-58.8-76.1-17.9-12.4-39.7-18.1-57.5-31-20-14.6-34.6-34.1-56.8-46.7-22.6-12.8-53.2-17.8-80.6-14-13.4,1.8-29.5,5.5-40.7,13.6-15.7,11.3-28.2,26-42,39.4-12.8,12.4-28.5,20.8-44.4,28.8-28,14.1-54.4,33-71.4,59.2-14,21.6-15.1,46.7-6.7,70.6,5.4,15.4,14.6,28.9,24.6,41.6,4.9,6.2,20.4,32.5,28.7,32.2,38.1-1.5,77.7.2,116.1.4l146.5.6c20.7.1,44.3,2.9,63.8-2.6,21-5.9,45.7-10.9,61.4-27.3C472.838,242.5,478.138,218.6,478.438,197.3Z" fill="#a9d7ff"/><path d="M214.738,245.9,192.438,139a12.762,12.762,0,0,0-12.6-10.2h-90.8a8.536,8.536,0,0,0-8.4,10.4l22.3,106.9a12.76,12.76,0,0,0,12.6,10.2h90.8a8.586,8.586,0,0,0,8.4-10.4Z" fill="#fff"/><path d="M206.338,257.2h-90.8a13.886,13.886,0,0,1-13.5-11l-22.3-106.8a9.658,9.658,0,0,1,1.9-8,9.55,9.55,0,0,1,7.4-3.5h48.2a.9.9,0,1,1,0,1.8h-48.2a7.577,7.577,0,0,0-6,2.9,7.972,7.972,0,0,0-1.6,6.5l22.3,106.9a12.069,12.069,0,0,0,11.7,9.5h90.8a.9.9,0,0,1,.9.9C207.238,256.8,206.838,257.2,206.338,257.2Z" fill="#010910"/><path d="M188.137,161.6h-87.9l-2-10.5h88Z" fill="#2b8dd8"/><path d="M193.137,185.6h-88l-1.9-10.5h87.9Z" fill="#2b8dd8"/><path d="M198.137,209.6h-88l-1.9-10.5h87.9Z" fill="#2b8dd8"/><path d="M178.638,233.6h-63.5l-2-10.5h63.5Z" fill="#2b8dd8"/><path d="M308.337,59.4l-7.1-34.3a10.915,10.915,0,0,0-10.7-8.7h-76.9a7.4,7.4,0,0,0-7.2,8.8l7.1,34.3a10.915,10.915,0,0,0,10.7,8.7h76.9a7.263,7.263,0,0,0,7.2-8.8Z" fill="#fff"/><path d="M317.538,103.1l-4.4-21.7a10.915,10.915,0,0,0-10.7-8.7h-76.9a7.4,7.4,0,0,0-7.2,8.8l4.4,21.7a10.915,10.915,0,0,0,10.7,8.7h76.9a7.4,7.4,0,0,0,7.2-8.8Z" fill="#fff"/><path d="M321.137,135.9h-70.1a.9.9,0,0,1,0-1.8h70.1a7.577,7.577,0,0,0,6-2.9,7.965,7.965,0,0,0,1.6-6.5l-22.3-106.9a12.07,12.07,0,0,0-11.7-9.5h-90.8a7.575,7.575,0,0,0-6,2.9,7.975,7.975,0,0,0-1.6,6.5l9.1,43.8a.919.919,0,0,1,.012.362.921.921,0,0,1-.71.747.925.925,0,0,1-1.1-.709l-9.1-43.8a9.657,9.657,0,0,1,1.9-8,9.545,9.545,0,0,1,7.4-3.5h90.8a13.886,13.886,0,0,1,13.5,11l22.3,106.9a9.648,9.648,0,0,1-1.9,8,9.777,9.777,0,0,1-7.4,3.4Z" fill="#010910"/><path d="M243.438,180.9h-80.3a11.342,11.342,0,0,1-11.1-9.1l-19.7-94.6a7.639,7.639,0,0,1,7.5-9.2h80.3a11.343,11.343,0,0,1,11.1,9.1l19.7,94.6a7.7,7.7,0,0,1-7.5,9.2Z" fill="#2b8dd8"/><path d="M182.938,150.5h-12.9l-5.5-27.5h12.8Z" fill="#fff"/><path d="M205.038,150.4h-12.9l-8.6-46.7h12.8Z" fill="#fff"/><path d="M227.837,150h-12.9l-12.7-61.6h12.8Z" fill="#fff"/><path d="M118.838,117.7h-64.4a11.894,11.894,0,0,1-11.7-9.6l-13.1-64.8a8.11,8.11,0,0,1,8-9.7h64.4a11.894,11.894,0,0,1,11.7,9.6l13.1,64.8a8.11,8.11,0,0,1-8,9.7Z" fill="#2b8dd8"/><path d="M91.938,77.1l-17.7,11.5a2.057,2.057,0,0,1-2.8-1.4l-4.5-23.1c-.3-1.3,1-2.1,2.2-1.4l22.3,11.5c1.2.7,1.5,2.3.5,2.9l-17.7,11.5a2.057,2.057,0,0,1-2.8-1.4l-4.5-23.1c-.3-1.3,1-2.1,2.2-1.4l22.3,11.5C92.638,74.9,92.938,76.5,91.938,77.1Z" fill="#fff"/><path d="M153.137,57.3a1.9,1.9,0,1,0-1.9-1.9A1.9,1.9,0,0,0,153.137,57.3Z" fill="#2b8dd8"/><path d="M173.738,30.1a3.4,3.4,0,1,0-3.4-3.4A3.4,3.4,0,0,0,173.738,30.1Z" fill="#2b8dd8"/><path d="M132.538,10.9a5.59,5.59,0,1,1-.424-2.144A5.6,5.6,0,0,1,132.538,10.9Z" fill="#2b8dd8"/><path d="M72.838,185.6a2,2,0,0,1,2.147,3.011,2.006,2.006,0,0,1-1.247.889,2.121,2.121,0,0,1-2.4-1.5,1.986,1.986,0,0,1,1.5-2.4Z" fill="#2b8dd8"/><path d="M70.738,176a2,2,0,1,1-1.5,2.4,2.123,2.123,0,0,1,1.5-2.4Z" fill="#2b8dd8"/><path d="M68.738,166.3a2,2,0,1,1-1.5,2.4,1.96,1.96,0,0,1,1.5-2.4Z" fill="#2b8dd8"/><path d="M66.638,156.7a2,2,0,1,1-1.5,2.4,1.917,1.917,0,0,1,1.5-2.4Z" fill="#2b8dd8"/><path d="M64.538,147a2.065,2.065,0,0,1,2.4,1.5,2.121,2.121,0,0,1-1.5,2.4,2.065,2.065,0,0,1-2.4-1.5,1.96,1.96,0,0,1,1.5-2.4Z" fill="#2b8dd8"/><path d="M70.038,202a6.2,6.2,0,1,0-.044-2.437A6.234,6.234,0,0,0,70.038,202Zm9.9-2.1a3.867,3.867,0,1,1-.591-1.4,3.884,3.884,0,0,1,.591,1.4Z" fill="#2b8dd8"/><path d="M425.838,79.3a2.5,2.5,0,1,0-2.5-2.5A2.5,2.5,0,0,0,425.838,79.3Z" fill="#64aceb"/><path d="M32.838,272.3a2.5,2.5,0,1,0-2.5-2.5A2.5,2.5,0,0,0,32.838,272.3Z" fill="#64aceb"/><path d="M422.738,13.2a4.909,4.909,0,1,0,3.462,1.438,4.9,4.9,0,0,0-3.462-1.437Zm0,7.7a2.8,2.8,0,1,1,0-5.6,2.863,2.863,0,0,1,2.8,2.8,2.8,2.8,0,0,1-2.8,2.8Z" fill="#64aceb"/><path d="M355.537,12.2l-1.9-1,1-1.9a1.03,1.03,0,0,0-1.8-1l-1,1.9-1.9-1a1.03,1.03,0,0,0-1,1.8l1.9,1-1,1.9a1.03,1.03,0,0,0,1.8,1l1-1.9,1.9,1a1.013,1.013,0,0,0,.785.1,1.013,1.013,0,0,0,.615-.5.959.959,0,0,0,.119-.791.961.961,0,0,0-.519-.609Z" fill="#64aceb"/><path d="M11.138,220l-1.9-1,1-1.9a1.03,1.03,0,0,0-1.8-1l-1,1.9-1.9-1a1.042,1.042,0,0,0-.386-.135,1.03,1.03,0,0,0-.774.209,1.029,1.029,0,0,0-.158,1.469,1.026,1.026,0,0,0,.319.257l1.9,1-1,1.9a1.03,1.03,0,0,0,1.8,1l1-1.9,1.9,1a1,1,0,0,0,.785.1,1.013,1.013,0,0,0,.615-.5,1.237,1.237,0,0,0-.4-1.4Z" fill="#64aceb"/><path d="M336.737,61.1c-9.7-5.2-23-7.2-33.6-3.4-11.2,4-9.3,16.1-5.8,24.6a120.981,120.981,0,0,1,6,18.5c4.4,18.6.5,36.1,16.7,49.8,7.1,6,15.8,10.5,25,11.2,9.3.8,19.1-2.6,24.9-9.9a27.507,27.507,0,0,0,5.6-14.3c.7-6.1-1.7-11.6-1.5-17.4,0-2,1.2-3.6,1-5.5-.2-3.1-2.7-7-3.9-9.9a150.5,150.5,0,0,0-10.2-20C354.837,75.2,346.837,66.4,336.737,61.1Z" fill="#010910"/><path d="M358.737,152.5h-35l5.2-55.8h26.2Z" fill="#fff"/><path d="M359.838,153.5h-37.2l5.4-57.7h28.1Zm-35-2h32.9l-3.4-53.7h-24.4Z" fill="#010910"/><path d="M357.937,59.5l-40-.9a7.709,7.709,0,0,0-7.9,7.8v7.9a27.2,27.2,0,0,1-7.5,18.9l-1.1,1.1a1.033,1.033,0,0,0-.353.9,1.031,1.031,0,0,0,.553.8l2.9,1.1V104a12.183,12.183,0,0,0,12.2,12.2h43.3l6.2-47a8.579,8.579,0,0,0-8.3-9.7Z" fill="#fff"/><path d="M360.938,117.2h-44.2a13.185,13.185,0,0,1-13.2-13.2V97.8l-2.3-.9a1.991,1.991,0,0,1-1.2-1.5,1.776,1.776,0,0,1,.7-1.8l1.1-1.1a26.6,26.6,0,0,0,7.2-18.2V66.4a8.77,8.77,0,0,1,2.6-6.3,8.675,8.675,0,0,1,6.3-2.5l40,.9a9.833,9.833,0,0,1,7.1,3.4,9.363,9.363,0,0,1,2.2,7.5Zm-43.2-57.6a6.832,6.832,0,0,0-4.7,1.9,6.734,6.734,0,0,0-2,4.8v7.9a28.2,28.2,0,0,1-7.8,19.6l-1.2,1.2,3.5,1.4V104a11.183,11.183,0,0,0,11.2,11.2h42.4l6.1-46.1a7.832,7.832,0,0,0-1.8-6,8.1,8.1,0,0,0-5.6-2.7l-40-.9a.1.1,0,0,1-.03.071.1.1,0,0,1-.07.029Z" fill="#010910"/><path d="M321.537,266.2l17-2-14.1-1c-2.9-.4-3.5-3.5-.2-3.6l29.6-3.4,9.6-1a3.437,3.437,0,0,0,2.6-3.8c-.3-1.9-1.9-4.2-6-5.9l-2.4-8.2,21.1,8.4a19.745,19.745,0,0,1,3.8,2l4.1,2.8,15.2-3.1-21-42.8c4-11.8,32.9-26,44.7-22l25.4,51.7,5.3,10.8c10.2,20.7-6.8,44.4-29.7,41.5l-39.3-4-3.1,1.2a21.439,21.439,0,0,1-5,1.2c-9.2.8-46.5-2.8-51.9-4.3-2.2-.6-2.6-3.2,0-3.3l18.3.3-21.2-2.3c-2.2-.4-2.8-3.1,0-3.3l17.9-.8-20.4-1.4C319.037,269.7,319.237,266.1,321.537,266.2Z" fill="#fff"/><path d="M430.237,287.8a26.8,26.8,0,0,1-4-.3l-39-4-2.9,1.1a16.3,16.3,0,0,1-5.3,1.2c-9.3.8-46.8-2.8-52.2-4.4a3.25,3.25,0,0,1-2.5-3.2,2.339,2.339,0,0,1,1.5-1.9l-1.8-.2a3.092,3.092,0,0,1-2.8-3,2.688,2.688,0,0,1,2.6-2.3l-2.2-.1a2.984,2.984,0,0,1-2.6-1.5,2.756,2.756,0,0,1,.1-2.9,2.643,2.643,0,0,1,2.3-1.3h0l6.6-.8-3.7-.3c-2.3-.3-3.5-1.9-3.4-3.2.1-1.1.9-2.3,3.2-2.4l29.5-3.4,9.5-1a2.4,2.4,0,0,0,1.8-2.6c-.2-1.1-1.1-3.3-5.4-5.2l-.4-.2-3.2-10.6,23,9.1a30.4,30.4,0,0,1,4,2.1l3.7,2.6,13.5-2.8-20.7-42,.1-.4c2.3-6.8,11.8-13.5,19.9-17.5s19.2-7.4,26-5.1l.4.1,30.9,62.8a29.6,29.6,0,0,1-2.5,30.6,28.466,28.466,0,0,1-24,13Zm-43.3-6.4,39.5,4.1a27.939,27.939,0,0,0,28.7-40l-30.5-62.1c-5.2-1.5-14.6.5-24.1,5.1-9.5,4.7-16.8,10.9-18.8,16l21.4,43.6-16.9,3.5-4.4-3.1a15.463,15.463,0,0,0-3.6-1.9l-19.2-7.6,1.7,5.8c4.9,2.2,6,5,6.2,6.5a4.414,4.414,0,0,1-3.3,4.9h-.1l-9.6,1-29.6,3.4c-.9,0-1.4.3-1.4.5,0,.3.5.9,1.6,1.1l14,1v2l-17.1,2h-.1a.6.6,0,0,0-.6.3.75.75,0,0,0,0,.9c.2.3.4.4.9.4l20.4,1.4v2l-17.9.8c-.5,0-.9.2-.9.4,0,.3.4.7,1.1.9l21.2,2.3-.1,2-18.3-.3c-.3,0-.7.1-.8.4,0,.3.3.8,1.1,1,5.4,1.6,42.3,5.1,51.5,4.3a16.67,16.67,0,0,0,4.8-1.1Z" fill="#010910"/><path d="M300.137,142.4h89.1a24.774,24.774,0,0,1,23.4,13.9l21.2,43.8c-8.5-1-30.9,15.2-30.9,15.2l-10.5,73.1h-95.5l-17.6-121.9a21.04,21.04,0,0,1,20.8-24.1Z" fill="#64aceb"/><path d="M251.838,203.7l47.8,26,25.6-46.6a27.207,27.207,0,1,0-47.8-26Z" fill="#64aceb"/><path d="M300.438,221.2l-10.3,18.7,6.8,48.4Z" fill="#010910"/><path d="M219.938,182.9l1.1-10.5a11.039,11.039,0,0,0-8.2-11.9l-5-1.3,2.2,19Z" fill="#fff"/><path d="M220.837,184.4l-11.6-5.6-2.5-21.1,6.4,1.7a12.119,12.119,0,0,1,9,13Zm-9.8-6.8,8.1,3.9.9-9.1a10.141,10.141,0,0,0-7.5-10.9l-3.6-.9Z" fill="#010910"/><path d="M300.638,221c-3.6-12.2-32.6-28-44.9-24.4l-11.9,21.8-22.9-30.3c-12.2-3.6-31.2,5.2-34.8,17.4l31.6,65.5c12,20.8,42,20.7,54.1,0l.5-.9Z" fill="#fff"/><path d="M244.737,287.5a31.88,31.88,0,0,1-27.9-16.1l-31.6-65.5a.985.985,0,0,1,1.8-.8l31.6,65.5a29.778,29.778,0,0,0,26.1,15h0a29.946,29.946,0,0,0,26.2-15.1l.3-.5.2-.4,33.2-56.3a1.045,1.045,0,0,1,.257-.319,1.03,1.03,0,0,1,1.543,1.319l-33.7,57.2a32.154,32.154,0,0,1-28,16Z" fill="#010910"/><path d="M243.937,220.3l-23.7-31.6a1,1,0,0,1-.169-.352,1.02,1.02,0,0,1-.021-.389,1.008,1.008,0,0,1,.39-.659.987.987,0,0,1,.352-.168,1,1,0,0,1,1.048.368l21.9,29.2,11.4-20.8.4-.1c8.1-2.4,22.5,3.2,32.6,10a1.012,1.012,0,1,1-1.1,1.7c-10.8-7.4-23.8-11.6-30.5-9.9Z" fill="#010910"/><path d="M219.938,182.9a47.953,47.953,0,0,0-10-21.1l-25.6-32.3c-3.3-4.4-8.2-2-4.6,3.7l11.7,19.5a6.122,6.122,0,0,1,.2,6,6.691,6.691,0,0,1-.8-.3,3.232,3.232,0,0,0-3.6,1.1c-.7,1.1-.5,2.7-1.3,3.7-1.5,1.7-4.8.3-6.2,2-.9,1.1-.4,3-1.4,4.1-.7.7-1.8.7-2.6,1.2-1.2.8-1.4,2.3-1.5,3.7a36.679,36.679,0,0,0,1.3,11.4l1.1,4.9a26.7,26.7,0,0,0,9.5,15l34.8-17.4Z" fill="#fff"/><path d="M186.138,206.5a1.419,1.419,0,0,1-.6-.2,27.432,27.432,0,0,1-9.9-15.6l-1.1-4.9a35.67,35.67,0,0,1-1.3-11.7c.1-1.4.4-3.4,1.9-4.5a4.226,4.226,0,0,1,1.4-.6,2.346,2.346,0,0,0,1-.5,2.95,2.95,0,0,0,.5-1.5,4.431,4.431,0,0,1,.9-2.4c1-1.2,2.5-1.3,3.8-1.4,1-.1,1.9-.1,2.4-.6a2.95,2.95,0,0,0,.5-1.5,5.779,5.779,0,0,1,.7-2.1,4.377,4.377,0,0,1,4.7-1.5,5.183,5.183,0,0,0-.5-4.2l-11.7-19.5c-2.2-3.6-1.4-6,0-6.9,1.6-1.1,4.2-.6,6.3,2.2l25.6,32.3a49.258,49.258,0,0,1,10.2,21.5l1,5.2a1.02,1.02,0,0,1-2,.4l-1-5.2a47.242,47.242,0,0,0-9.8-20.7l-25.7-32.3c-1.3-1.7-2.8-2.2-3.6-1.7-.7.5-.8,2,.6,4.2l11.7,19.5a7.269,7.269,0,0,1,.3,7l-.4.9-.9-.4c-.2-.1-.5-.2-.7-.3a2.3,2.3,0,0,0-2.5.7,5.689,5.689,0,0,0-.4,1.4,4.6,4.6,0,0,1-1,2.4c-1,1.1-2.5,1.2-3.8,1.3-1.2.1-2,.2-2.4.7a2.226,2.226,0,0,0-.4,1.5,3.813,3.813,0,0,1-1.1,2.6,4.608,4.608,0,0,1-1.8,1,2.482,2.482,0,0,0-.9.4c-.6.4-1,1.3-1,2.9a32.445,32.445,0,0,0,1.3,11.1l1.1,4.9a26.191,26.191,0,0,0,9.2,14.5,1.077,1.077,0,0,1,.2,1.4A1.888,1.888,0,0,1,186.138,206.5Z" fill="#010910"/><path d="M297.038,289c12.4.1,24.8.1,37.2.2,12.3.1,24.6.1,36.9.2,6.9,0,13.9.1,20.8.1a.7.7,0,1,0,0-1.4c-12.4-.1-24.7-.1-37.1-.2-12.3-.1-24.7-.1-37-.2-7,0-13.9-.1-20.9-.1C296.138,287.5,296.138,289,297.038,289Z" fill="#fff"/><path d="M312.138,104.4a2.2,2.2,0,0,0,.68.522,2.5,2.5,0,0,0,3-.931,2.136,2.136,0,0,0-.079-2.391,2.194,2.194,0,0,0-2.358-.63,2.174,2.174,0,0,0-.742.43,2.135,2.135,0,0,0-.5,3Z" fill="#010910"/><path d="M311.538,105.2a1,1,0,0,1-1-1,.944.944,0,0,1,.608-.94.951.951,0,0,1,.392-.06,2.789,2.789,0,0,0,2.2-.8,2,2,0,0,0,.5-1.5,1.171,1.171,0,0,1,.9-1.1,1.089,1.089,0,0,1,1.1.9,4.431,4.431,0,0,1-1,3,4.865,4.865,0,0,1-3.7,1.5Z" fill="#010910"/><path d="M242.938,237.8c-.2,0-.4,0-.5-.2a.981.981,0,0,1-.452-.635.985.985,0,0,1,.152-.765c4.3-6.8,1.9-11.9,1.8-12.1a.944.944,0,0,1-.11-.359.963.963,0,0,1,.038-.374.954.954,0,0,1,.472-.567.891.891,0,0,1,.36-.136.888.888,0,0,1,.718.221.894.894,0,0,1,.222.315c.1.2,3.1,6.2-1.8,14.1a1.057,1.057,0,0,1-.9.5Z" fill="#010910"/><path d="M408.337,253.9a.961.961,0,0,1-.9-.6c-2.4-4.8-6.1-5.2-6.2-5.2a.947.947,0,0,1-.384-.1.965.965,0,0,1-.311-.249.948.948,0,0,1-.182-.354.966.966,0,0,1-.023-.4,1.018,1.018,0,0,1,1.1-.9c.2,0,5,.4,7.9,6.3a.99.99,0,0,1-.5,1.3,1.669,1.669,0,0,1-.5.2Z" fill="#010910"/><path d="M322.738,79.8a1.417,1.417,0,0,1-.6-.2,10.255,10.255,0,0,0-10.2-.9.985.985,0,0,1-.8-1.8,12.318,12.318,0,0,1,12.3,1.1,1.077,1.077,0,0,1,.2,1.4,1.222,1.222,0,0,1-.9.4Z" fill="#010910"/><path d="M314.038,85.4c-.1,1.6.8,2.9,2.1,3a2.643,2.643,0,0,0,2.6-2.6c.1-1.6-.8-2.9-2.1-3C315.338,82.6,314.238,83.8,314.038,85.4Z" fill="#010910"/><path d="M433.938,201.1a.958.958,0,0,1-.9-.6l-21.2-43.8a23.924,23.924,0,0,0-22.5-13.3h-93.5a1,1,0,0,1,0-2h93.4a25.979,25.979,0,0,1,24.4,14.5l21.2,43.8a.993.993,0,0,1-.5,1.3C434.238,201,434.038,201.1,433.938,201.1Z" fill="#010910"/><path d="M393.338,289.3h-97.2l-6.9-47.9a.963.963,0,0,1,.8-1.121.957.957,0,0,1,.724.179.943.943,0,0,1,.254.283.955.955,0,0,1,.125.359l6.6,46.2h93.8l9.9-69a8.589,8.589,0,0,1,3.6-5.8,133.91,133.91,0,0,1,19.3-11.2.985.985,0,0,1,.8,1.8c-6.8,3-14.8,8.2-18.9,11a6.107,6.107,0,0,0-2.7,4.4Z" fill="#010910"/><path d="M397.538,107.2v-.1c-.1-7.6.8-15.3,0-22.9-4-41.3-43.8-51.9-79.1-48-5.3.6-10.8,1.6-15.3,4.4-9.8,6-10.5,15.2-5.1,24.7,2.3,4.1,6.2,7.6,10.9,8.2a18.824,18.824,0,0,0,8.1-1.2,48.005,48.005,0,0,0,15.7-8.9c-4,3.5,8.5,18.3,9.7,21,7.2,16-11.2,32.1-17.1,45.9-8.1,19.1-8.2,42.1,3.3,60,13,20.4,40.4,28.4,62.8,20.2,18-6.5,24.5-27.6,22.8-45-1-10-6.6-16.8-10.2-26a91.177,91.177,0,0,1-6.5-32.3Z" fill="#010910"/><path d="M357.031,93.864c3.507-6.074,2.628-13.147-1.964-15.8s-11.156.124-14.663,6.2-2.628,13.147,1.963,15.8S353.524,99.938,357.031,93.864Z" fill="#fff"/><path d="M346.337,102.1a8.57,8.57,0,0,1-4.4-1.2,1.03,1.03,0,1,1,1-1.8,7.588,7.588,0,0,0,6.9.1,13.877,13.877,0,0,0,6.5-6,13.586,13.586,0,0,0,1.9-8.6,7.54,7.54,0,0,0-3.5-5.9c-3.6-2.1-8.8-.4-12.2,4.2a1,1,0,1,1-1.6-1.2c4.1-5.3,10.3-7.3,14.8-4.7a9.494,9.494,0,0,1,4.5,7.4,15.9,15.9,0,0,1-2.2,9.8,16.137,16.137,0,0,1-7.4,6.8,9.146,9.146,0,0,1-4.3,1.1Z" fill="#010910"/><path d="M252.638,203.3a.894.894,0,0,1-.5-.1,1,1,0,0,1-.311-.257.988.988,0,0,1-.186-.358,1.011,1.011,0,0,1-.032-.4,1.023,1.023,0,0,1,.129-.383l25.6-46.6a28.436,28.436,0,0,1,17.9-13.9.964.964,0,0,1,.382-.023.983.983,0,0,1,.818.723,1.009,1.009,0,0,1,.023.383.984.984,0,0,1-.379.649.993.993,0,0,1-.344.168,26.512,26.512,0,0,0-16.7,12.9l-25.5,46.7a1.2,1.2,0,0,1-.9.5Z" fill="#010910"/><path d="M488.538,290H1.438a1,1,0,0,1,0-2h487.1a.93.93,0,0,1,.391.06.941.941,0,0,1,.333.215.944.944,0,0,1,.276.725,1,1,0,0,1-1,1Z" fill="#fff"/></g></svg>